<svg xmlns="http://www.w3.org/2000/svg" width="20.866" height="21.244" viewBox="0 0 20.866 21.244"><defs><style>.a{fill:#1b1464;}</style></defs><g transform="translate(-2.85 -2)"><path class="a" d="M4.842,20.644h6.451l-.04-.071a2.385,2.385,0,0,1-.128-2.129H5.054V7.264H21.179V11.8c.086.049.173.1.254.148l.153-.055a2.366,2.366,0,0,1,1.79.066V3.992A1.992,1.992,0,0,0,21.385,2H4.842A1.992,1.992,0,0,0,2.85,3.992V18.656A1.992,1.992,0,0,0,4.842,20.644ZM10.757,3.972a.832.832,0,1,1-.832.832.832.832,0,0,1,.832-.832Zm-2.467,0a.832.832,0,1,1-.832.832.832.832,0,0,1,.832-.832Zm-2.467,0A.832.832,0,1,1,4.99,4.8a.832.832,0,0,1,.832-.832ZM23.6,14.518l-.465-.8a.841.841,0,0,0-1.018-.37l-.94.343a4.647,4.647,0,0,0-1.613-.932l-.173-.985a.841.841,0,0,0-.83-.7h-.929a.841.841,0,0,0-.83.7l-.173.985a4.634,4.634,0,0,0-1.613.932l-.94-.343a.841.841,0,0,0-1.014.37l-.465.8a.841.841,0,0,0,.188,1.067l.766.642a4.682,4.682,0,0,0,0,1.865l-.766.642A.841.841,0,0,0,12.6,19.8l.465.805a.841.841,0,0,0,1.018.37l.94-.343a4.647,4.647,0,0,0,1.613.932l.173.985a.841.841,0,0,0,.828.7h.929a.841.841,0,0,0,.83-.7l.173-.985a4.647,4.647,0,0,0,1.613-.932l.94.343a.841.841,0,0,0,1.018-.37l.465-.8a.841.841,0,0,0-.188-1.067l-.766-.642a4.689,4.689,0,0,0,0-1.865l.766-.642a.841.841,0,0,0,.186-1.067Zm-5.5,4.4a1.757,1.757,0,1,1,1.757-1.757A1.757,1.757,0,0,1,18.1,18.915Z"/></g></svg>