<svg xmlns="http://www.w3.org/2000/svg" width="21.876" height="21.58" viewBox="0 0 21.876 21.58"><defs><style>.a{fill:#1b1464;}</style></defs><g transform="translate(0.003 -3.483)"><path class="a" d="M21.862,12.126a1.171,1.171,0,0,0-.479-.995q-1.571-1.248-3.141-2.5V6.39a.836.836,0,0,0-.833-.833h-.9a.836.836,0,0,0-.833.833V6.6L12.517,4.087a2.388,2.388,0,0,0-3.162-.01Q4.905,7.6.467,11.133a.97.97,0,0,0-.431.646,6.14,6.14,0,0,0,0,1.34v0a.881.881,0,0,0,.88.843H3.04V24.116a.9.9,0,0,0,.849.947H8.795v-7.2h4.282v7.2h4.9a.9.9,0,0,0,.849-.947V13.967h2.119a.881.881,0,0,0,.882-.847v0a3.9,3.9,0,0,0,.043-.638h-.013C21.862,12.361,21.859,12.244,21.862,12.126Z" transform="translate(0)"/></g></svg>