<svg xmlns="http://www.w3.org/2000/svg" xmlns:xlink="http://www.w3.org/1999/xlink" width="23.512" height="30.096" viewBox="0 0 23.512 30.096"><defs><style>.a{fill:url(#a);}.b{fill:url(#b);}.c{fill:url(#c);}.d{fill:url(#d);}.e{fill:url(#e);}.f{fill:url(#f);}.g{fill:#fff;}</style><linearGradient id="a" x1="0.5" y1="-0.5" x2="0.5" y2="-0.46" gradientUnits="objectBoundingBox"><stop offset="0" stop-color="#f3f7ff"/><stop offset="0.99" stop-color="#b5d1ff"/></linearGradient><linearGradient id="b" x1="0.5" y1="-0.17" x2="0.5" y2="20.658" gradientUnits="objectBoundingBox"><stop offset="0" stop-color="#ff5252"/><stop offset="1" stop-color="#d50000"/></linearGradient><linearGradient id="c" y1="-0.085" y2="2.406" xlink:href="#a"/><linearGradient id="d" y1="-2.145" y2="-0.366" xlink:href="#a"/><linearGradient id="e" y1="-0.123" y2="2.825" xlink:href="#b"/><linearGradient id="f" y1="-4.203" y2="3.531" xlink:href="#b"/></defs><path class="a" d="M32.691,30.1H12.47a.47.47,0,0,1-.47-.47V.47A.47.47,0,0,1,12.47,0H27.829a.47.47,0,0,1,.332.138L33.023,5a.47.47,0,0,1,.138.332V29.626A.47.47,0,0,1,32.691,30.1Z" transform="translate(-9.649 0)"/><path class="b" d="M7,32.01l1.881-.831,1.313,2.015H7Z" transform="translate(-7 -16.517)"/><path class="c" d="M31.691,30.1H11.47a.47.47,0,0,1-.47-.47V.47A.47.47,0,0,1,11.47,0H27.024l5.137,5.137V29.626A.47.47,0,0,1,31.691,30.1Z" transform="translate(-9.119 0)"/><path class="d" d="M45.076,0V4.667a.47.47,0,0,0,.47.47h4.667l-2.3-2.774Z" transform="translate(-27.171)"/><path class="e" d="M25.35,43.078H7.832A.832.832,0,0,1,7,42.245V34.714H25.35a.833.833,0,0,1,.832.832v6.7a.832.832,0,0,1-.832.832Z" transform="translate(-7 -18.39)"/><path class="f" d="M8.881,31.179H7.831a.831.831,0,1,0,0,1.662h1.05Z" transform="translate(-7 -16.517)"/><g transform="translate(3.762 18.47)"><path class="g" d="M15,42.933V39.71a.408.408,0,0,1,.408-.409,13.224,13.224,0,0,1,1.87.061,1.136,1.136,0,0,1,.816,1.182,1.167,1.167,0,0,1-.9,1.215,8.58,8.58,0,0,1-1.247.058.131.131,0,0,0-.131.131v.985a.408.408,0,1,1-.815,0Zm.815-2.817V41a.131.131,0,0,0,.131.131,3.576,3.576,0,0,0,.96-.063.551.551,0,0,0-.11-1.055,7.976,7.976,0,0,0-.85-.028.131.131,0,0,0-.131.132Z" transform="translate(-15 -39.285)"/><path class="g" d="M23,39.7a.408.408,0,0,1,.408-.409,9.161,9.161,0,0,1,1.851.077,1.524,1.524,0,0,1,1,1.027,2.987,2.987,0,0,1,.132.955,2.65,2.65,0,0,1-.124.86,1.473,1.473,0,0,1-1.006,1.035,9.82,9.82,0,0,1-1.848.086A.408.408,0,0,1,23,42.925Zm.815.406v2.413a.131.131,0,0,0,.131.131,5.134,5.134,0,0,0,.971-.039.7.7,0,0,0,.543-.558,2.638,2.638,0,0,0,.083-.74,2.414,2.414,0,0,0-.083-.719.782.782,0,0,0-.611-.582,6.762,6.762,0,0,0-.9-.039.131.131,0,0,0-.129.132Z" transform="translate(-19.238 -39.277)"/><path class="g" d="M31.682,42.944V39.721a.409.409,0,0,1,.409-.409h2.019a.342.342,0,1,1,0,.683H32.631a.131.131,0,0,0-.131.132v.693a.131.131,0,0,0,.131.132h1.213a.342.342,0,1,1,0,.683H32.631a.131.131,0,0,0-.131.131v1.176a.409.409,0,0,1-.818,0Z" transform="translate(-23.837 -39.296)"/></g></svg>