<svg xmlns="http://www.w3.org/2000/svg" width="19.01" height="19.01" viewBox="0 0 19.01 19.01"><defs><style>.a{fill:#1b1464;fill-rule:evenodd;}</style></defs><g transform="translate(0 0)"><path class="a" d="M6.7,958.159a.915.915,0,0,0-.907.907v4.22a.915.915,0,0,0,.907.907H23.9a.91.91,0,0,0,.907-.907v-4.22a.91.91,0,0,0-.907-.907H6.7Zm14.938,1.915a1.105,1.105,0,1,1-1.1,1.1A1.11,1.11,0,0,1,21.642,960.074Z" transform="translate(-5.797 -958.159)"/><path class="a" d="M6.61,1018.472a.814.814,0,0,0-.813.813v4.415a.822.822,0,0,0,.813.813H23.994a.822.822,0,0,0,.813-.813v-4.415a.814.814,0,0,0-.813-.813H6.61Zm15.032,1.922a1.105,1.105,0,1,1-1.1,1.1A1.11,1.11,0,0,1,21.642,1020.394Z" transform="translate(-5.797 -1005.503)"/><path class="a" d="M6.623,988.472a.825.825,0,0,0-.827.82v4.388a.825.825,0,0,0,.827.82h17.35a.831.831,0,0,0,.833-.82v-4.388a.831.831,0,0,0-.833-.82H6.623Zm15.018,1.908a1.105,1.105,0,1,1-1.1,1.109A1.112,1.112,0,0,1,21.642,990.38Z" transform="translate(-5.797 -981.954)"/></g></svg>