<svg xmlns="http://www.w3.org/2000/svg" width="193.288" height="44.78" viewBox="0 0 193.288 44.78"><defs><style>.a,.c{isolation:isolate;}.b{fill:none;stroke:#e6e6e6;stroke-width:5px;}.b,.d{stroke-miterlimit:10;}.c,.d,.f{fill:#fff;}.c{mix-blend-mode:hard-light;}.d{stroke:#fff;font-size:27px;font-family:Helvetica;letter-spacing:-0.02em;}.e{letter-spacing:-0.03em;}.g{fill:#49d4ff;}</style></defs><g class="a" transform="translate(-26.78 -30.04)"><g transform="translate(29.28 32.54)"><circle class="b" cx="19.89" cy="19.89" r="19.89"/><circle class="c" cx="2.132" cy="2.132" r="2.132" transform="translate(28.984 17.408)"/><text class="d" transform="translate(51.788 28.271)"><tspan x="0" y="0">Sma</tspan><tspan y="0">r</tspan><tspan y="0">tche</tspan><tspan class="e" y="0">c</tspan><tspan y="0">k</tspan></text><path class="f" d="M74.839,71.75a2.164,2.164,0,0,0-1.139.33h0c-.292.292-.371.359-.637.628l-8.644,8.5s-2.628-2.473-3.4-3.4a2.193,2.193,0,0,0-2.275-.85,2.158,2.158,0,0,0-1.609,2.126,2.42,2.42,0,0,0,.943,1.711l6.077,6.077a.456.456,0,0,0,.645,0L76.617,75.059a2,2,0,0,0,.353-1.168,2.132,2.132,0,0,0-2.132-2.141Z" transform="translate(-49.003 -59.716)"/><path class="g" d="M81,54.385c-1.1,1.1-.876,2.6-2.044,3.776-1.446,1.443-2.149.5-3.551,1.8h0a2.132,2.132,0,0,0,3.008,2.976h0v-.018c1.072-1.013.321-2.044,2.062-3.8,1.332-1.332,3.969-.464,3.969-3.066a2.132,2.132,0,0,0-3.417-1.7" transform="translate(-61.622 -47.096)"/><path class="g" d="M98.588,108.223c-1.1,1.1-.876,2.6-2.044,3.776-1.46,1.443-2.146.5-3.551,1.8h0a2.129,2.129,0,0,0,3,2.976h0v-.018c1.072-1.013.321-2.059,2.062-3.8,1.332-1.332,3.969-.464,3.969-3.066a2.132,2.132,0,0,0-3.414-1.7" transform="translate(-74.066 -85.211)"/></g></g></svg>