<svg xmlns="http://www.w3.org/2000/svg" width="23.182" height="23.184" viewBox="0 0 23.182 23.184"><defs><style>.a{fill:#e0b237;}.b{fill:#fff;}</style></defs><g transform="translate(-0.461)"><path class="a" d="M20.027,23.184H4.077A3.616,3.616,0,0,1,.842,17.952L8.817,2a3.616,3.616,0,0,1,6.47,0l7.975,15.952a3.616,3.616,0,0,1-3.234,5.232Zm0,0" transform="translate(0 0)"/><g transform="translate(11.329 5.795)"><path class="b" d="M241.622,128.2a.723.723,0,0,1,.723.723V137.6a.723.723,0,0,1-1.446,0v-8.678A.723.723,0,0,1,241.622,128.2Zm0,0" transform="translate(-240.898 -128.203)"/><path class="b" d="M240.9,384.2h1.446v1.446H240.9Zm0,0" transform="translate(-240.898 -372.632)"/></g></g></svg>