<svg xmlns="http://www.w3.org/2000/svg" width="26.334" height="30.096" viewBox="0 0 26.334 30.096"><defs><style>.a{fill:#e2e5e7;}.b{fill:#b0b7bd;}.c{fill:#cad1d8;}.d{fill:#4caf51;}.e{fill:#fff;}</style></defs><path class="a" d="M97.881,0A1.887,1.887,0,0,0,96,1.881V28.215A1.887,1.887,0,0,0,97.881,30.1h18.81a1.887,1.887,0,0,0,1.881-1.881V7.524L111.048,0Z" transform="translate(-92.238)"/><path class="b" d="M353.881,7.524h5.643L352,0V5.643A1.887,1.887,0,0,0,353.881,7.524Z" transform="translate(-333.19)"/><path class="c" d="M389.643,133.643,384,128h5.643Z" transform="translate(-363.309 -120.476)"/><path class="d" d="M54.572,250.345a.943.943,0,0,1-.94.94H32.94a.943.943,0,0,1-.94-.94v-9.4a.943.943,0,0,1,.94-.94H53.631a.943.943,0,0,1,.94.94Z" transform="translate(-32 -225.893)"/><g transform="translate(4.304 17.129)"><path class="e" d="M107.525,296.874l1.308-1.639c.391-.512,1.151.142.722.631-.45.534-.925,1.114-1.376,1.707l1.534,1.91a.494.494,0,1,1-.819.548l-1.384-1.775-1.361,1.813c-.384.548-1.234-.068-.805-.579l1.511-1.918c-.474-.594-.933-1.173-1.391-1.707a.487.487,0,1,1,.752-.615Z" transform="translate(-105.226 -294.829)"/><path class="e" d="M197.36,295.8a.469.469,0,0,1,.474-.459.459.459,0,0,1,.444.459v3.768h2.046a.5.5,0,1,1,0,.985h-2.489a.454.454,0,0,1-.474-.458V295.8Z" transform="translate(-191.944 -295.113)"/><path class="e" d="M270.634,292.775c.173-1.46,2.376-1.722,3.414-.924a.44.44,0,1,1-.482.736c-.557-.353-1.82-.518-1.978.262-.2,1.234,3.068.528,3.015,2.528-.053,1.91-2.82,1.954-3.858,1.1a.556.556,0,0,1-.105-.737.444.444,0,0,1,.67-.052c.616.42,2.2.736,2.315-.332C273.529,294.242,270.4,294.911,270.634,292.775Z" transform="translate(-260.829 -291.407)"/></g><path class="c" d="M113.869,416.94H96v.94h17.869a.943.943,0,0,0,.94-.94V416A.943.943,0,0,1,113.869,416.94Z" transform="translate(-92.238 -391.547)"/></svg>